<svg xmlns="http://www.w3.org/2000/svg" viewBox="0 0 245.9 10.1"><path d="M9.9 0h1.6v10.1h-1.1V1.3L5.7 6.8 1.1 1.3v8.8H0V0h1.6l4.2 5 4.1-5zm13.4 0v10.1h-1.1V5.6h-8.1v4.5H13V0h1.1v4.5h8.1V0h1.1zm10 0c.9 0 1.7.8 1.7 1.7v3c0 .9-.7 1.7-1.7 1.7h-6.7c-.1 0-.3 0-.5-.1v3.8H25V0h8.3zm.6 1.7c0-.3-.3-.5-.5-.5h-6.7c-.3 0-.5.3-.5.5v3c0 .3.3.5.5.5h6.7c.3 0 .5-.2.5-.5v-3zM38.1 3H37V1.9h1.1V3zm0 6v1.1H37V9h1.1zm14.1-9c.9 0 1.7.7 1.7 1.7v6.7c0 .9-.7 1.7-1.7 1.7h-8.4V0h8.4zm.6 1.7c0-.3-.3-.5-.5-.5h-6.7c-.3 0-.5.3-.5.5v6.7c0 .3.3.5.5.5h6.7c.3 0 .5-.3.5-.5V1.7zm12.7 3c0 .9-.7 1.7-1.7 1.7h-1.5l3.2 3.8H64l-3.2-3.8h-3.7c-.1 0-.3 0-.5-.1v3.8h-1.1V0h8.4c.9 0 1.7.8 1.7 1.7v3zm-1.7.5c.3 0 .5-.2.5-.5v-3c0-.3-.2-.5-.5-.5h-6.7c-.3 0-.5.3-.5.5v3c0 .3.3.5.5.5h6.7zM67 0h1.1v10.1H67V0zm14.4 0h1.3c-2 3.5-3.8 6.6-5.8 10.1h-1.3c-2-3.4-3.9-6.7-5.8-10.1h1.3l5.2 9 5.1-9zm12 1.1h-8.1v3.3h6.5v1.1h-6.5V9h8.1v1.1h-9.2V0h9.2v1.1zM103.8 0h1.1v10.1h-1.6L96 1.3v8.8h-1.1V0h1.6l7.4 8.8V0zm16.1 4.8c.3.3.6.8.6 1.2v2.4c0 .9-.7 1.7-1.7 1.7h-8.4V0h8c.9 0 1.7.7 1.7 1.7v2.1c0 .3-.1.5-.2.7v.3zM112 1.1c-.3 0-.5.3-.5.5v2.1c0 .3.3.5.5.5h6.3c.3 0 .5-.3.5-.5v-2c0-.3-.2-.5-.5-.5H112zm7.3 5c0-.3-.3-.5-.5-.5H112c-.3 0-.5.3-.5.5v2.4c0 .3.3.5.5.5h6.7c.3 0 .5-.3.5-.5V6.1zM131.4 0l-4.6 6.3v3.8h-1.1V6.3c-1.5-2.1-3.1-4.2-4.6-6.3h1.3l3.9 4.9c1.2-1.6 2.6-3.4 3.9-4.9h1.2zm14.4 1.1h-8.1v3.3h6.5v1.1h-6.5V9h8.1v1.1h-9.2V0h9.2v1.1zM157.1 0l-4.2 5c1.4 1.6 2.8 3.4 4.2 5h-1.5l-3.5-4.2-3.5 4.2h-1.5l4.2-5-4.2-5h1.5l3.5 4.2 3.5-4.2h1.5zm3.3 1.1c-.3 0-.5.3-.5.5v6.7c0 .3.3.5.5.5h8.4v1.1h-8.4c-.9 0-1.7-.7-1.7-1.7V1.7c0-.9.7-1.7 1.7-1.7h8.4v1.1h-8.4zm19 0h-8.1v3.3h6.5v1.1h-6.5V9h8.1v1.1h-9.2V0h9.2v1.1zM181 0h1.1v9h9v1.1H181V0zm10.9 0h1.1v9h9v1.1h-10.1V0zM212 1.1h-8.1v3.3h6.5v1.1h-6.5V9h8.1v1.1h-9.2V0h9.2v1.1zM222.4 0h1.1v10.1H222l-7.4-8.8v8.8h-1.1V0h1.6l7.4 8.8V0zm4.4 1.1c-.3 0-.5.3-.5.5v6.7c0 .3.3.5.5.5h8.4v1.1h-8.4c-.9 0-1.7-.7-1.7-1.7V1.7c0-.9.7-1.7 1.7-1.7h8.4v1.1h-8.4zm19.1 0h-8.1v3.3h6.5v1.1h-6.5V9h8.1v1.1h-9.2V0h9.2v1.1z" fill="#6a6a6a"/></svg>